<svg width="9" height="9" viewBox="0 0 9 9" fill="none" xmlns="http://www.w3.org/2000/svg">
<path d="M0.290527 2.57744V7.99841C0.290527 8.13648 0.402456 8.24841 0.540527 8.24841H2.25796C2.39603 8.24841 2.50796 8.13648 2.50796 7.99841V2.57527C2.50796 2.52732 2.49417 2.48039 2.46823 2.44006L1.62519 1.12897C1.5277 0.977371 1.3067 0.975608 1.20681 1.12563L0.332432 2.43889C0.305107 2.47993 0.290527 2.52814 0.290527 2.57744Z" fill="#B1B1B1"/>
<path d="M3.07178 2.57744V7.99841C3.07178 8.13648 3.18371 8.24841 3.32178 8.24841H5.03921C5.17728 8.24841 5.28921 8.13648 5.28921 7.99841V2.57527C5.28921 2.52732 5.27542 2.48039 5.24948 2.44006L4.40644 1.12897C4.30895 0.977371 4.08795 0.975608 3.98806 1.12563L3.11368 2.43889C3.08636 2.47993 3.07178 2.52814 3.07178 2.57744Z" fill="#B1B1B1"/>
<path d="M5.85498 2.57744V7.99841C5.85498 8.13648 5.96691 8.24841 6.10498 8.24841H7.82241C7.96048 8.24841 8.07241 8.13648 8.07241 7.99841V2.57527C8.07241 2.52732 8.05862 2.48039 8.03269 2.44006L7.18964 1.12897C7.09216 0.977371 6.87115 0.975608 6.77126 1.12563L5.89689 2.43889C5.86956 2.47993 5.85498 2.52814 5.85498 2.57744Z" fill="#B1B1B1"/>
</svg>
