<svg width="12" height="11" viewBox="0 0 12 11" fill="none" xmlns="http://www.w3.org/2000/svg">
<path d="M8.61204 4.34951L4.5825 7.71969C4.53475 7.75963 4.50361 7.81595 4.49519 7.87763L4.38239 8.70364C4.37431 8.76274 4.34538 8.81701 4.3008 8.85664L2.37283 10.5708C2.26845 10.6636 2.1083 10.6529 2.01721 10.5471L1.06172 9.4366C0.97236 9.33275 0.983241 9.17631 1.08612 9.08582L3.07485 7.3367C3.12149 7.29568 3.18173 7.27349 3.24383 7.27445L3.93219 7.28513C3.99292 7.28608 4.05191 7.26488 4.09815 7.22551L8.12418 3.7974L8.72243 2.85341C8.7541 2.80344 8.80246 2.76631 8.85892 2.74864L9.74265 2.47205C9.83637 2.44271 9.93859 2.47097 10.0039 2.54427L10.0884 2.63905C10.1505 2.7087 10.1687 2.80714 10.1355 2.89436L9.78903 3.80437C9.76385 3.87053 9.7118 3.92291 9.6458 3.94851L8.61204 4.34951Z" fill="#B1B1B1"/>
<path d="M4.04717 5.36299L8.13663 10.4473C8.30809 10.6605 8.61903 10.6963 8.83444 10.5276L9.53851 9.97647C9.76504 9.79914 9.79558 9.46771 9.60526 9.25198L5.50644 4.6059C5.4127 4.49965 5.36845 4.35861 5.38468 4.21784L5.55737 2.72042C5.57854 2.53681 5.49669 2.35649 5.34454 2.25154L3.70704 1.12215C3.53241 1.00171 3.30079 1.00457 3.12919 1.12929L1.58872 2.24891C1.41058 2.37839 1.33812 2.60918 1.4103 2.81724L2.03036 4.60461C2.08909 4.7739 2.23393 4.89883 2.41001 4.93206L3.75029 5.18504C3.86728 5.20712 3.97255 5.27022 4.04717 5.36299Z" fill="#B1B1B1" stroke="#F2F2F2" stroke-width="0.5"/>
<circle cx="2.58823" cy="2.05371" r="0.756348" transform="rotate(2.65119 2.58823 2.05371)" fill="#F2F2F2"/>
</svg>
