<svg width="12" height="11" viewBox="0 0 12 11" fill="none" xmlns="http://www.w3.org/2000/svg">
<path d="M10.0519 10.0272C3.76663 10.2858 1.46754 5.27441 0.109557 1.83722C0.0194856 1.60924 0.109646 1.35067 0.320718 1.22602L2.27817 0.0700911C2.515 -0.0697671 2.82033 0.00792448 2.96151 0.243971L3.93132 1.8654C4.03018 2.03068 4.02532 2.23805 3.91883 2.39852L3.32773 3.28926C3.22899 3.43805 3.21718 3.62894 3.29756 3.7884C4.40078 5.97692 4.89861 6.47098 7.16264 7.61649C7.33132 7.70184 7.53453 7.68376 7.68587 7.57046L8.44545 7.00184C8.55804 6.91755 8.70091 6.88458 8.83904 6.91101L10.7561 7.27775C11.0585 7.33559 11.2372 7.65028 11.1321 7.93961L10.4912 9.70338C10.4237 9.88926 10.2495 10.0191 10.0519 10.0272Z" fill="#121212"/>
</svg>
